<svg width="281" height="65" viewBox="0 0 281 65" fill="none" xmlns="http://www.w3.org/2000/svg">
<path d="M93.5398 12.0393C93.5398 9.99005 92.0368 8.45313 90.0411 8.45313H83.9801V15.6132H90.0411C92.0368 15.6132 93.5398 14.0519 93.5398 12.0393ZM100.007 12.0393C100.007 17.4307 95.7819 21.4926 90.1766 21.4926H83.9924V30.3482H77.6973V2.57379H90.1766C95.7696 2.57379 100.007 6.63566 100.007 12.0393Z" fill="#1E295C"/>
<path d="M116.589 20.0896C116.589 17.1866 114.433 15.0154 111.514 15.0154C108.631 15.0154 106.475 17.1866 106.475 20.0896C106.475 22.9927 108.631 25.1639 111.514 25.1639C114.433 25.1517 116.589 22.9805 116.589 20.0896ZM122.515 9.8191V30.348H116.577V28.2988C114.988 29.9089 112.832 30.8359 110.319 30.8359C104.627 30.8359 100.315 26.2129 100.315 20.0896C100.315 13.9663 104.627 9.34338 110.319 9.34338C112.844 9.34338 114.988 10.2704 116.577 11.8805V9.8191H122.515Z" fill="#1E295C"/>
<path d="M137.643 9.50194V15.5399H136.743C133.121 15.5399 131.138 17.5891 131.138 20.7727V30.348H125.2V9.81909H131.138V12.1489C132.604 10.4534 134.514 9.48975 136.743 9.48975H137.643V9.50194Z" fill="#1E295C"/>
<path d="M149.1 15.1741V22.7002C149.1 24.2737 149.95 25.1519 151.699 25.1519C152.758 25.1519 153.645 24.8348 154.422 24.4322V29.9456C153.202 30.5555 152.019 30.8361 150.442 30.8361C145.404 30.8361 143.162 27.8964 143.162 23.676V15.1863H140.033V9.81928H143.162V4.745H149.1V9.81928H154.422V15.1741H149.1Z" fill="#1E295C"/>
<path d="M156.861 9.81923H162.799V30.3481H156.861V9.81923ZM156.171 3.58615C156.171 1.53692 157.76 0 159.83 0C161.949 0 163.525 1.52472 163.525 3.58615C163.525 5.68417 161.936 7.2089 159.83 7.2089C157.76 7.2089 156.171 5.67198 156.171 3.58615Z" fill="#1E295C"/>
<path d="M200.729 33.9708H193.288L189.223 39.9233H195.444L200.729 33.9708Z" fill="#1E295C"/>
<path d="M137.84 50.3037C138.443 48.0471 140.242 46.5956 142.472 46.5956C144.714 46.5956 146.5 47.9983 147.141 50.3037H137.84ZM142.558 41.5335C136.263 41.5335 131.495 46.1199 131.495 52.1578C131.495 58.3543 136.46 63.026 143.038 63.026C146.857 63.026 150.196 61.5013 152.389 59.0373L148.409 55.622C147.436 56.8295 145.564 57.9151 143.211 57.9151C140.611 57.9151 138.616 56.5124 137.889 54.207H153.337C153.423 53.6825 153.46 52.9141 153.46 52.353C153.448 46.1199 148.779 41.5335 142.558 41.5335Z" fill="#1E295C"/>
<path d="M122.391 53.524C122.391 55.8172 120.852 57.3419 118.535 57.3419C116.219 57.3419 114.68 55.8172 114.68 53.524V42.0093H108.742V54.3291C108.742 59.5619 112.647 63.0261 118.535 63.0261C124.473 63.0261 128.329 59.5619 128.329 54.3291V42.0093H122.391V53.524Z" fill="#1E295C"/>
<path d="M98.0856 52.3165L94.3528 48.6206L90.2628 52.6702L93.9709 56.3418C92.9238 56.7931 91.7535 57.0492 90.4969 57.0492C85.7417 57.0492 82.1198 53.4631 82.1198 48.6815C82.1198 43.8878 85.7417 40.3139 90.4969 40.3139C95.2521 40.3139 98.874 43.9 98.874 48.6815C98.8617 49.9867 98.5783 51.2187 98.0856 52.3165ZM105.329 48.6572C105.329 40.4846 98.9109 34.2881 90.4969 34.2881C82.0459 34.2881 75.6646 40.4846 75.6646 48.6572C75.6646 56.8297 82.0459 63.0262 90.4969 63.0262C93.5028 63.0262 96.2377 62.2333 98.5414 60.8428L100.254 62.5382L108.458 62.5748L102.755 56.9273C104.381 54.6219 105.329 51.792 105.329 48.6572Z" fill="#1E295C"/>
<path d="M150.812 33.9708H143.371L139.306 39.9233H145.527L150.812 33.9708Z" fill="#1E295C"/>
<path d="M272.834 49.6694C270.715 49.2303 269.138 48.8644 269.138 47.6934C269.138 46.6444 270.444 46.2053 272.021 46.2053C274.054 46.2053 275.766 46.9737 277.306 48.0105L280.065 44.2292C278.119 42.8265 275.47 41.5335 271.812 41.5335C267.093 41.5335 263.188 43.7047 263.188 48.1325C263.188 52.9628 267.537 53.9265 270.826 54.6583C272.945 55.1463 274.522 55.5488 274.522 56.7076C274.522 57.7932 273.179 58.3543 271.233 58.3543C268.83 58.3543 266.884 57.4638 265.295 56.1465L262.535 59.9278C264.568 61.5745 267.5 63.026 271.442 63.026C276.481 63.026 280.472 60.6475 280.472 56.1465C280.472 51.3527 276.086 50.3525 272.834 49.6694Z" fill="#1E295C"/>
<path d="M238.808 57.3541C235.876 57.3541 233.733 55.1828 233.733 52.2798C233.733 49.3767 235.889 47.2055 238.808 47.2055C241.74 47.2055 243.884 49.3767 243.884 52.2798C243.896 55.1828 241.74 57.3541 238.808 57.3541ZM238.808 41.5335C232.427 41.5335 227.635 46.1565 227.635 52.2798C227.635 58.4031 232.427 63.026 238.808 63.026C245.19 63.026 249.982 58.4031 249.982 52.2798C249.994 46.1687 245.19 41.5335 238.808 41.5335Z" fill="#1E295C"/>
<path d="M259.418 42.0214H253.48V62.5503H259.418V42.0214Z" fill="#1E295C"/>
<path d="M256.449 32.2021C254.38 32.2021 252.791 33.7269 252.791 35.7883C252.791 37.8863 254.38 39.411 256.449 39.411C258.568 39.411 260.145 37.8863 260.145 35.7883C260.145 33.7269 258.568 32.2021 256.449 32.2021Z" fill="#1E295C"/>
<path d="M216.733 47.2055C218.679 47.2055 220.305 48.2057 221.168 49.7426L226.329 46.6444C224.42 43.5096 220.921 41.5335 216.733 41.5335C210.351 41.5335 205.559 46.1565 205.559 52.2798C205.559 58.4031 210.351 63.026 216.733 63.026C220.921 63.026 224.42 61.05 226.329 57.9151L221.168 54.8169C220.318 56.3416 218.691 57.3541 216.733 57.3541C213.801 57.3541 211.657 55.1828 211.657 52.2798C211.657 49.3889 213.813 47.2055 216.733 47.2055Z" fill="#1E295C"/>
<path d="M167.887 57.3541C164.955 57.3541 162.811 55.1829 162.811 52.2798C162.811 49.3768 164.967 47.2056 167.887 47.2056C170.819 47.2056 172.962 49.3768 172.962 52.2798C172.962 55.1829 170.806 57.3541 167.887 57.3541ZM169.057 41.5336C166.531 41.5336 164.388 42.4606 162.799 44.0707V33.5684H156.861V62.5504H162.799V60.5012C164.388 62.1113 166.544 63.0383 169.057 63.0383C174.785 63.0383 179.06 58.4153 179.06 52.292C179.06 46.1687 174.785 41.5336 169.057 41.5336Z" fill="#1E295C"/>
<path d="M187.757 50.3037C188.361 48.0471 190.16 46.5956 192.39 46.5956C194.632 46.5956 196.418 47.9983 197.059 50.3037H187.757ZM192.476 41.5335C186.181 41.5335 181.413 46.1199 181.413 52.1578C181.413 58.3543 186.378 63.026 192.956 63.026C196.775 63.026 200.114 61.5013 202.307 59.0373L198.327 55.622C197.354 56.8295 195.482 57.9151 193.129 57.9151C190.529 57.9151 188.534 56.5124 187.807 54.207H203.255C203.341 53.6825 203.378 52.9141 203.378 52.353C203.366 46.1199 198.697 41.5335 192.476 41.5335Z" fill="#1E295C"/>
<path d="M60.1794 44.6195C66.0557 40.2161 65.4521 32.7023 64.331 26.3228C57.0134 28.8722 52.5908 29.2259 49.3262 37.8376C48.7965 37.0935 47.7863 35.4834 46.037 34.2636C43.2898 32.4217 40.1853 32.6413 37.4751 33.9709C33.8532 35.7396 31.8945 40.765 33.9518 43.9731C35.5779 43.2656 36.6251 42.8631 37.8816 42.7411C40.2839 42.5093 41.9839 43.5583 42.7354 44.9611C43.4746 46.3394 43.1912 48.2179 42.0086 49.2791C40.8506 50.3159 37.4381 52.0724 32.5844 52.0724C21.7311 52.0724 12.9352 43.3022 12.9352 32.4705C12.9352 21.6389 21.7311 12.8687 32.5844 12.8687C41.9716 12.8687 49.8313 19.4311 51.7777 28.2135C55.0177 25.469 58.8736 24.1272 63.6165 22.5659C59.4033 9.47769 47.0964 0 32.572 0C14.586 0 0 14.552 0 32.4827C0 49.4987 13.3417 64.9899 33.2742 64.9899C38.1773 64.9899 42.834 63.6603 47.1457 60.8914C49.2276 59.5496 51.0878 57.8786 53.1944 56.5978C56.2989 54.7071 59.3664 55.3048 60.6722 57.9883C61.1403 58.952 61.2882 60.0498 61.2512 61.2573C64.602 61.4525 68.3101 58.0005 68.8275 54.268C69.2094 51.4625 68.3224 49.1083 66.1912 47.3641C64.331 45.8515 61.5592 44.9855 60.1794 44.6195Z" fill="#1E295C"/>
</svg>
